<mxfile host="app.diagrams.net" modified="2024-06-06T14:22:13.141Z" agent="Mozilla/5.0 (Windows NT 10.0; Win64; x64) AppleWebKit/537.36 (KHTML, like Gecko) Chrome/125.0.0.0 Safari/537.36" etag="fbaknIzPLxu3OwPMnLin" version="24.4.13" type="github">
  <diagram id="C5RBs43oDa-KdzZeNtuy" name="Page-1">
    <mxGraphModel dx="1134" dy="1758" grid="1" gridSize="10" guides="1" tooltips="1" connect="1" arrows="1" fold="1" page="1" pageScale="1" pageWidth="827" pageHeight="1169" math="0" shadow="0">
      <root>
        <mxCell id="WIyWlLk6GJQsqaUBKTNV-0" />
        <mxCell id="WIyWlLk6GJQsqaUBKTNV-1" parent="WIyWlLk6GJQsqaUBKTNV-0" />
        <mxCell id="Jd12Q7ok_SYUPN8lM--g-0" value="&lt;b&gt;Features:&lt;/b&gt;&lt;div&gt;- Online payment&lt;/div&gt;&lt;div&gt;- Gather payment from multiple people.&lt;/div&gt;&lt;div&gt;- Each person can decide it&#39;s own share or leader can decide&lt;/div&gt;&lt;div&gt;- Amount should be credited on one destination which later will be used to pay full amount&lt;/div&gt;&lt;div&gt;-&amp;nbsp;&lt;/div&gt;" style="text;html=1;align=left;verticalAlign=middle;resizable=0;points=[];autosize=1;strokeColor=none;fillColor=none;" vertex="1" parent="WIyWlLk6GJQsqaUBKTNV-1">
          <mxGeometry y="-10" width="500" height="100" as="geometry" />
        </mxCell>
        <mxCell id="Jd12Q7ok_SYUPN8lM--g-1" value="«interface»&lt;br&gt;&lt;b&gt;Person&lt;/b&gt;&lt;div&gt;+&lt;b&gt;&amp;nbsp;&lt;/b&gt;name&lt;/div&gt;&lt;div&gt;+ phoneNumber&lt;/div&gt;&lt;div&gt;+ emailAddress&lt;/div&gt;&lt;div&gt;+ addAmount()&lt;/div&gt;&lt;div&gt;&lt;br&gt;&lt;/div&gt;" style="html=1;whiteSpace=wrap;" vertex="1" parent="WIyWlLk6GJQsqaUBKTNV-1">
          <mxGeometry x="1100" width="120" height="117" as="geometry" />
        </mxCell>
        <mxCell id="Jd12Q7ok_SYUPN8lM--g-9" value="Leader" style="swimlane;fontStyle=1;align=center;verticalAlign=top;childLayout=stackLayout;horizontal=1;startSize=26;horizontalStack=0;resizeParent=1;resizeParentMax=0;resizeLast=0;collapsible=1;marginBottom=0;whiteSpace=wrap;html=1;" vertex="1" parent="WIyWlLk6GJQsqaUBKTNV-1">
          <mxGeometry x="840" y="-130" width="160" height="180" as="geometry" />
        </mxCell>
        <mxCell id="Jd12Q7ok_SYUPN8lM--g-10" value="- name: string&lt;div&gt;- phoneNumber: string&lt;/div&gt;&lt;div&gt;- emailAddress: string&lt;/div&gt;&lt;div&gt;- processingSplits: &amp;lt;Splits&amp;gt;&lt;/div&gt;&lt;div&gt;&lt;br&gt;&lt;/div&gt;&lt;div&gt;&lt;br&gt;&lt;/div&gt;" style="text;strokeColor=none;fillColor=none;align=left;verticalAlign=top;spacingLeft=4;spacingRight=4;overflow=hidden;rotatable=0;points=[[0,0.5],[1,0.5]];portConstraint=eastwest;whiteSpace=wrap;html=1;" vertex="1" parent="Jd12Q7ok_SYUPN8lM--g-9">
          <mxGeometry y="26" width="160" height="64" as="geometry" />
        </mxCell>
        <mxCell id="Jd12Q7ok_SYUPN8lM--g-11" value="" style="line;strokeWidth=1;fillColor=none;align=left;verticalAlign=middle;spacingTop=-1;spacingLeft=3;spacingRight=3;rotatable=0;labelPosition=right;points=[];portConstraint=eastwest;strokeColor=inherit;" vertex="1" parent="Jd12Q7ok_SYUPN8lM--g-9">
          <mxGeometry y="90" width="160" height="8" as="geometry" />
        </mxCell>
        <mxCell id="Jd12Q7ok_SYUPN8lM--g-12" value="+ Leader(): Leader&lt;div&gt;+ InitializeSplit(): Split&lt;/div&gt;&lt;div&gt;&lt;span style=&quot;background-color: initial;&quot;&gt;+ addAmount(): Amount&lt;/span&gt;&lt;/div&gt;&lt;div&gt;&lt;span style=&quot;background-color: initial;&quot;&gt;+ processPayment(): Payment&lt;/span&gt;&lt;br&gt;&lt;/div&gt;&lt;div&gt;&lt;br&gt;&lt;/div&gt;" style="text;strokeColor=none;fillColor=none;align=left;verticalAlign=top;spacingLeft=4;spacingRight=4;overflow=hidden;rotatable=0;points=[[0,0.5],[1,0.5]];portConstraint=eastwest;whiteSpace=wrap;html=1;" vertex="1" parent="Jd12Q7ok_SYUPN8lM--g-9">
          <mxGeometry y="98" width="160" height="82" as="geometry" />
        </mxCell>
        <mxCell id="Jd12Q7ok_SYUPN8lM--g-13" value="Member" style="swimlane;fontStyle=1;align=center;verticalAlign=top;childLayout=stackLayout;horizontal=1;startSize=26;horizontalStack=0;resizeParent=1;resizeParentMax=0;resizeLast=0;collapsible=1;marginBottom=0;whiteSpace=wrap;html=1;" vertex="1" parent="WIyWlLk6GJQsqaUBKTNV-1">
          <mxGeometry x="840" y="100" width="160" height="140" as="geometry" />
        </mxCell>
        <mxCell id="Jd12Q7ok_SYUPN8lM--g-14" value="- name: string&lt;div&gt;- phoneNumber: string&lt;/div&gt;&lt;div&gt;- emailAddress: string&lt;/div&gt;&lt;div&gt;&lt;br&gt;&lt;/div&gt;" style="text;strokeColor=none;fillColor=none;align=left;verticalAlign=top;spacingLeft=4;spacingRight=4;overflow=hidden;rotatable=0;points=[[0,0.5],[1,0.5]];portConstraint=eastwest;whiteSpace=wrap;html=1;" vertex="1" parent="Jd12Q7ok_SYUPN8lM--g-13">
          <mxGeometry y="26" width="160" height="54" as="geometry" />
        </mxCell>
        <mxCell id="Jd12Q7ok_SYUPN8lM--g-15" value="" style="line;strokeWidth=1;fillColor=none;align=left;verticalAlign=middle;spacingTop=-1;spacingLeft=3;spacingRight=3;rotatable=0;labelPosition=right;points=[];portConstraint=eastwest;strokeColor=inherit;" vertex="1" parent="Jd12Q7ok_SYUPN8lM--g-13">
          <mxGeometry y="80" width="160" height="8" as="geometry" />
        </mxCell>
        <mxCell id="Jd12Q7ok_SYUPN8lM--g-16" value="+ Member(): Member&lt;div&gt;+ AddAmount(): Amount&lt;br&gt;&lt;/div&gt;" style="text;strokeColor=none;fillColor=none;align=left;verticalAlign=top;spacingLeft=4;spacingRight=4;overflow=hidden;rotatable=0;points=[[0,0.5],[1,0.5]];portConstraint=eastwest;whiteSpace=wrap;html=1;" vertex="1" parent="Jd12Q7ok_SYUPN8lM--g-13">
          <mxGeometry y="88" width="160" height="52" as="geometry" />
        </mxCell>
        <mxCell id="Jd12Q7ok_SYUPN8lM--g-17" value="Order" style="swimlane;fontStyle=1;align=center;verticalAlign=top;childLayout=stackLayout;horizontal=1;startSize=26;horizontalStack=0;resizeParent=1;resizeParentMax=0;resizeLast=0;collapsible=1;marginBottom=0;whiteSpace=wrap;html=1;" vertex="1" parent="WIyWlLk6GJQsqaUBKTNV-1">
          <mxGeometry x="590" y="296" width="160" height="154" as="geometry" />
        </mxCell>
        <mxCell id="Jd12Q7ok_SYUPN8lM--g-18" value="- orderID: string&lt;div&gt;- items: List&amp;lt;Items&amp;gt;&lt;/div&gt;&lt;div&gt;- amount: int&lt;/div&gt;&lt;div&gt;- tax: int&lt;/div&gt;&lt;div&gt;- tip: int&lt;/div&gt;&lt;div&gt;- totalAmount: int&lt;/div&gt;" style="text;strokeColor=none;fillColor=none;align=left;verticalAlign=top;spacingLeft=4;spacingRight=4;overflow=hidden;rotatable=0;points=[[0,0.5],[1,0.5]];portConstraint=eastwest;whiteSpace=wrap;html=1;" vertex="1" parent="Jd12Q7ok_SYUPN8lM--g-17">
          <mxGeometry y="26" width="160" height="94" as="geometry" />
        </mxCell>
        <mxCell id="Jd12Q7ok_SYUPN8lM--g-19" value="" style="line;strokeWidth=1;fillColor=none;align=left;verticalAlign=middle;spacingTop=-1;spacingLeft=3;spacingRight=3;rotatable=0;labelPosition=right;points=[];portConstraint=eastwest;strokeColor=inherit;" vertex="1" parent="Jd12Q7ok_SYUPN8lM--g-17">
          <mxGeometry y="120" width="160" height="8" as="geometry" />
        </mxCell>
        <mxCell id="Jd12Q7ok_SYUPN8lM--g-20" value="+ Order(): Order" style="text;strokeColor=none;fillColor=none;align=left;verticalAlign=top;spacingLeft=4;spacingRight=4;overflow=hidden;rotatable=0;points=[[0,0.5],[1,0.5]];portConstraint=eastwest;whiteSpace=wrap;html=1;" vertex="1" parent="Jd12Q7ok_SYUPN8lM--g-17">
          <mxGeometry y="128" width="160" height="26" as="geometry" />
        </mxCell>
        <mxCell id="Jd12Q7ok_SYUPN8lM--g-21" value="Item" style="swimlane;fontStyle=1;align=center;verticalAlign=top;childLayout=stackLayout;horizontal=1;startSize=26;horizontalStack=0;resizeParent=1;resizeParentMax=0;resizeLast=0;collapsible=1;marginBottom=0;whiteSpace=wrap;html=1;" vertex="1" parent="WIyWlLk6GJQsqaUBKTNV-1">
          <mxGeometry x="870" y="310" width="160" height="114" as="geometry" />
        </mxCell>
        <mxCell id="Jd12Q7ok_SYUPN8lM--g-22" value="- name: string&lt;div&gt;- description: string&lt;/div&gt;&lt;div&gt;- quantity: Quantity&lt;/div&gt;&lt;div&gt;-&amp;nbsp;&lt;/div&gt;" style="text;strokeColor=none;fillColor=none;align=left;verticalAlign=top;spacingLeft=4;spacingRight=4;overflow=hidden;rotatable=0;points=[[0,0.5],[1,0.5]];portConstraint=eastwest;whiteSpace=wrap;html=1;" vertex="1" parent="Jd12Q7ok_SYUPN8lM--g-21">
          <mxGeometry y="26" width="160" height="54" as="geometry" />
        </mxCell>
        <mxCell id="Jd12Q7ok_SYUPN8lM--g-23" value="" style="line;strokeWidth=1;fillColor=none;align=left;verticalAlign=middle;spacingTop=-1;spacingLeft=3;spacingRight=3;rotatable=0;labelPosition=right;points=[];portConstraint=eastwest;strokeColor=inherit;" vertex="1" parent="Jd12Q7ok_SYUPN8lM--g-21">
          <mxGeometry y="80" width="160" height="8" as="geometry" />
        </mxCell>
        <mxCell id="Jd12Q7ok_SYUPN8lM--g-24" value="+ Item(): Item" style="text;strokeColor=none;fillColor=none;align=left;verticalAlign=top;spacingLeft=4;spacingRight=4;overflow=hidden;rotatable=0;points=[[0,0.5],[1,0.5]];portConstraint=eastwest;whiteSpace=wrap;html=1;" vertex="1" parent="Jd12Q7ok_SYUPN8lM--g-21">
          <mxGeometry y="88" width="160" height="26" as="geometry" />
        </mxCell>
        <mxCell id="Jd12Q7ok_SYUPN8lM--g-29" value="Split" style="swimlane;fontStyle=1;align=center;verticalAlign=top;childLayout=stackLayout;horizontal=1;startSize=26;horizontalStack=0;resizeParent=1;resizeParentMax=0;resizeLast=0;collapsible=1;marginBottom=0;whiteSpace=wrap;html=1;" vertex="1" parent="WIyWlLk6GJQsqaUBKTNV-1">
          <mxGeometry x="590" y="110" width="160" height="120" as="geometry" />
        </mxCell>
        <mxCell id="Jd12Q7ok_SYUPN8lM--g-30" value="&lt;div&gt;&lt;span style=&quot;background-color: initial;&quot;&gt;- members: List&amp;lt;Member&amp;gt;&lt;/span&gt;&lt;/div&gt;&lt;div&gt;&lt;span style=&quot;background-color: initial;&quot;&gt;- orderDetails: Order&lt;/span&gt;&lt;/div&gt;" style="text;strokeColor=none;fillColor=none;align=left;verticalAlign=top;spacingLeft=4;spacingRight=4;overflow=hidden;rotatable=0;points=[[0,0.5],[1,0.5]];portConstraint=eastwest;whiteSpace=wrap;html=1;" vertex="1" parent="Jd12Q7ok_SYUPN8lM--g-29">
          <mxGeometry y="26" width="160" height="44" as="geometry" />
        </mxCell>
        <mxCell id="Jd12Q7ok_SYUPN8lM--g-31" value="" style="line;strokeWidth=1;fillColor=none;align=left;verticalAlign=middle;spacingTop=-1;spacingLeft=3;spacingRight=3;rotatable=0;labelPosition=right;points=[];portConstraint=eastwest;strokeColor=inherit;" vertex="1" parent="Jd12Q7ok_SYUPN8lM--g-29">
          <mxGeometry y="70" width="160" height="8" as="geometry" />
        </mxCell>
        <mxCell id="Jd12Q7ok_SYUPN8lM--g-32" value="+ AddMember(): Member&lt;div&gt;+ createOrder(): Order&lt;/div&gt;" style="text;strokeColor=none;fillColor=none;align=left;verticalAlign=top;spacingLeft=4;spacingRight=4;overflow=hidden;rotatable=0;points=[[0,0.5],[1,0.5]];portConstraint=eastwest;whiteSpace=wrap;html=1;" vertex="1" parent="Jd12Q7ok_SYUPN8lM--g-29">
          <mxGeometry y="78" width="160" height="42" as="geometry" />
        </mxCell>
        <mxCell id="Jd12Q7ok_SYUPN8lM--g-36" value="1" style="endArrow=open;html=1;endSize=12;startArrow=diamondThin;startSize=14;startFill=1;edgeStyle=orthogonalEdgeStyle;align=left;verticalAlign=bottom;rounded=0;exitX=1.012;exitY=0.602;exitDx=0;exitDy=0;exitPerimeter=0;entryX=0;entryY=0.5;entryDx=0;entryDy=0;" edge="1" parent="WIyWlLk6GJQsqaUBKTNV-1" source="Jd12Q7ok_SYUPN8lM--g-18" target="Jd12Q7ok_SYUPN8lM--g-22">
          <mxGeometry x="-1" y="3" relative="1" as="geometry">
            <mxPoint x="800" y="410" as="sourcePoint" />
            <mxPoint x="960" y="410" as="targetPoint" />
          </mxGeometry>
        </mxCell>
        <mxCell id="Jd12Q7ok_SYUPN8lM--g-37" value="*" style="text;html=1;align=center;verticalAlign=middle;resizable=0;points=[];autosize=1;strokeColor=none;fillColor=none;" vertex="1" parent="WIyWlLk6GJQsqaUBKTNV-1">
          <mxGeometry x="840" y="330" width="30" height="30" as="geometry" />
        </mxCell>
        <mxCell id="Jd12Q7ok_SYUPN8lM--g-39" value="Extends" style="endArrow=block;endSize=16;endFill=0;html=1;rounded=0;exitX=0;exitY=0.5;exitDx=0;exitDy=0;entryX=1.029;entryY=0.977;entryDx=0;entryDy=0;entryPerimeter=0;" edge="1" parent="WIyWlLk6GJQsqaUBKTNV-1" source="Jd12Q7ok_SYUPN8lM--g-1" target="Jd12Q7ok_SYUPN8lM--g-14">
          <mxGeometry width="160" relative="1" as="geometry">
            <mxPoint x="900" y="90" as="sourcePoint" />
            <mxPoint x="1060" y="90" as="targetPoint" />
          </mxGeometry>
        </mxCell>
        <mxCell id="Jd12Q7ok_SYUPN8lM--g-40" value="Extends" style="endArrow=block;endSize=16;endFill=0;html=1;rounded=0;entryX=1.012;entryY=1.019;entryDx=0;entryDy=0;entryPerimeter=0;" edge="1" parent="WIyWlLk6GJQsqaUBKTNV-1" target="Jd12Q7ok_SYUPN8lM--g-10">
          <mxGeometry width="160" relative="1" as="geometry">
            <mxPoint x="1100" y="60" as="sourcePoint" />
            <mxPoint x="1015" y="189" as="targetPoint" />
          </mxGeometry>
        </mxCell>
        <mxCell id="Jd12Q7ok_SYUPN8lM--g-41" value="1" style="endArrow=open;html=1;endSize=12;startArrow=diamondThin;startSize=14;startFill=1;edgeStyle=orthogonalEdgeStyle;align=left;verticalAlign=bottom;rounded=0;exitX=0.447;exitY=0.983;exitDx=0;exitDy=0;exitPerimeter=0;entryX=0.456;entryY=0.009;entryDx=0;entryDy=0;entryPerimeter=0;" edge="1" parent="WIyWlLk6GJQsqaUBKTNV-1" source="Jd12Q7ok_SYUPN8lM--g-32" target="Jd12Q7ok_SYUPN8lM--g-17">
          <mxGeometry x="-1" y="3" relative="1" as="geometry">
            <mxPoint x="720" y="430" as="sourcePoint" />
            <mxPoint x="880" y="430" as="targetPoint" />
          </mxGeometry>
        </mxCell>
        <mxCell id="Jd12Q7ok_SYUPN8lM--g-42" value="1" style="endArrow=open;html=1;endSize=12;startArrow=diamondThin;startSize=14;startFill=1;edgeStyle=orthogonalEdgeStyle;align=left;verticalAlign=bottom;rounded=0;exitX=0.003;exitY=1.063;exitDx=0;exitDy=0;exitPerimeter=0;" edge="1" parent="WIyWlLk6GJQsqaUBKTNV-1" source="Jd12Q7ok_SYUPN8lM--g-10" target="Jd12Q7ok_SYUPN8lM--g-29">
          <mxGeometry x="-1" y="3" relative="1" as="geometry">
            <mxPoint x="672" y="-40" as="sourcePoint" />
            <mxPoint x="673" y="28" as="targetPoint" />
          </mxGeometry>
        </mxCell>
        <mxCell id="Jd12Q7ok_SYUPN8lM--g-43" value="1" style="endArrow=open;html=1;endSize=12;startArrow=diamondThin;startSize=14;startFill=1;edgeStyle=orthogonalEdgeStyle;align=left;verticalAlign=bottom;rounded=0;exitX=1.009;exitY=0.027;exitDx=0;exitDy=0;exitPerimeter=0;entryX=0.011;entryY=1.126;entryDx=0;entryDy=0;entryPerimeter=0;" edge="1" parent="WIyWlLk6GJQsqaUBKTNV-1" source="Jd12Q7ok_SYUPN8lM--g-32" target="Jd12Q7ok_SYUPN8lM--g-14">
          <mxGeometry x="-1" y="3" relative="1" as="geometry">
            <mxPoint x="690" y="256" as="sourcePoint" />
            <mxPoint x="808" y="240" as="targetPoint" />
          </mxGeometry>
        </mxCell>
      </root>
    </mxGraphModel>
  </diagram>
</mxfile>
